<?xml version="1.0" standalone="no"?>
<!DOCTYPE svg PUBLIC "-//W3C//DTD SVG 1.1//EN" "http://www.w3.org/Graphics/SVG/1.1/DTD/svg11.dtd" >
<svg xmlns="http://www.w3.org/2000/svg">
<metadata>Generated by IcoMoon</metadata>
<defs>
<font id="icomoon" horiz-adv-x="1024">
<font-face units-per-em="1024" ascent="960" descent="-64" />
<missing-glyph horiz-adv-x="1024" />
<glyph unicode="&#x20;" horiz-adv-x="512" d="" />
<glyph unicode="&#xe900;" glyph-name="backlog" horiz-adv-x="1080" d="M1062.752 960l-815.56-35.229s75.156-486.752-18.789-745.688h-224.294c-31.706-243.083 129.174-227.229 129.174-227.229l664.073-16.44c-1.31-0.49-2.824-0.774-4.404-0.774s-3.094 0.284-4.493 0.803l18.878-0.029c243.083 0.587 309.431 418.642 255.413 1024.587zM813.798-4.11h-11.156c-92.771 7.046-99.817 182.606-99.817 182.606h-396.33c53.431 234.862 23.486 645.872 23.486 645.872l657.028 34.642c72.807-457.394-36.404-863.119-173.211-863.119zM783.857 601.946l111.415 5.683 2.483-48.671-111.415-5.683-2.483 48.671zM778.11 669.892l170.068 8.407 2.406-48.675-170.068-8.407-2.406 48.675zM788.351 357.227l86.207 4.261 2.406-48.675-86.207-4.261-2.406 48.675zM783.54 425.883l132.43 8.425 3.094-48.636-132.43-8.425-3.094 48.636zM429.211 508.477l117.431 4.697-58.716 46.385h-45.211l-5.284 126.826 138.569 5.284v-35.229h2.936l39.339 51.083 4.11 4.697c-0.951 17.72-15.551 31.729-33.423 31.729-0.429 0-0.856-0.008-1.281-0.024l0.061 0.002-168.514-6.459c-8.997-0.132-17.473-4.164-23.47-10.551-5.498-5.877-8.864-13.774-8.864-22.458 0-0.574 0.015-1.145 0.044-1.713l6.455-157.278c-0.125-1.086-0.196-2.345-0.196-3.62 0-18.484 14.984-33.468 33.468-33.468 0.896 0 1.783 0.035 2.661 0.104zM540.771 642.349c-5.507 4.398-12.572 7.058-20.257 7.058-18.004 0-32.599-14.595-32.599-32.599 0-10.319 4.794-19.518 12.277-25.491l96.946-76.381 120.954 157.358c4.287 5.445 6.876 12.402 6.876 19.963 0 17.904-14.514 32.417-32.417 32.417-10.342 0-19.553-4.843-25.489-12.385l-81.080-105.17zM430.972 278.312l6.459 126.826 137.982 5.284v-31.119l8.22-6.459 39.339 51.083 3.523 3.523c0.004 0.189 0.006 0.412 0.006 0.636 0 17.835-14.458 32.294-32.294 32.294-0.622 0-1.24-0.018-1.853-0.052l-168.429-6.455c-17.751-0.88-31.969-15.081-32.877-32.797l-8.224-157.441c-0.030-0.526-0.047-1.142-0.047-1.762 0-18.16 14.721-32.881 32.881-32.881 0.017 0 0.033 0 0.050 0l133.869 5.284-58.716 46.385zM713.982 438.018c-5.449 4.338-12.432 6.96-20.028 6.96-10.491 0-19.814-5.003-25.713-12.753l-81.085-105.18-45.211 35.817c-5.507 4.398-12.572 7.058-20.257 7.058-18.004 0-32.599-14.595-32.599-32.599 0-10.319 4.794-19.518 12.277-25.491l96.946-76.381 120.954 157.358c4.299 5.434 6.896 12.387 6.896 19.946 0 10.201-4.73 19.298-12.117 25.216z" />
<glyph unicode="&#xe901;" horiz-adv-x="1435" d="M1328.909 49.386c2.983 9.299 4.702 19.995 4.702 31.093 0 0.222-0.001 0.444-0.002 0.665v772.519c-0.33 59.242-48.267 107.18-107.479 107.511h-1017.569c-59.242-0.33-107.18-48.267-107.511-107.479v-771.41c-0.002-0.265-0.004-0.579-0.004-0.893 0-11.008 1.72-21.614 4.906-31.564l-105.951 0.732v-113.974h1434.657v113.974h-105.749zM1194.373 55.849h-142.173v85.186h142.173v-85.186zM1223.16 488.831h-303.734c-17.521 0-31.725 14.204-31.725 31.725s14.204 31.725 31.725 31.725h303.734c0 0 0 0 0 0 17.521 0 31.725-14.204 31.725-31.725s-14.204-31.725-31.725-31.725c0 0 0 0 0 0zM1223.16 659.791h-436.507c0 0 0 0 0 0-17.521 0-31.725 14.204-31.725 31.725s14.204 31.725 31.725 31.725c0 0 0 0 0 0h436.507c17.521 0 31.725-14.204 31.725-31.725s-14.204-31.725-31.725-31.725z" />
<glyph unicode="&#xe902;" horiz-adv-x="1435" d="M649.18 719.715h-269.072c-0.033 0-0.071 0-0.11 0-5.375 0-10.281-2.005-14.012-5.307l-121.001-107.492c-4.147-3.638-6.902-9.121-7.049-15.249v-358.396c0-11.356 9.206-20.562 20.562-20.562 0 0 0 0 0 0h390.095c0.002 0 0.005 0 0.008 0 11.474 0 20.814 9.137 21.141 20.532l0.001 465.912c-0.312 11.221-9.332 20.245-20.532 20.562zM625.68 257.359h-342.508v312.546h108.099v107.511h234.997v-417.12z" />
<glyph unicode="&#xe903;" glyph-name="logout" horiz-adv-x="1034" d="M699.543 228.368h-94.128c-6.695 0-12.123-5.427-12.123-12.123 0 0 0 0 0 0v-99.833c0-33.082-26.818-59.9-59.9-59.9 0 0 0 0 0 0h-355.833c0 0 0 0 0 0-33.082 0-59.9 26.818-59.9 59.9 0 0 0 0 0 0v663.175c0 33.082 26.818 59.9 59.9 59.9 0 0 0 0 0 0h356.546c0 0 0 0 0 0 33.082 0 59.9-26.818 59.9-59.9 0 0 0 0 0 0v-99.833c0-6.695 5.427-12.123 12.123-12.123h96.267c6.695 0 12.123 5.427 12.123 12.123 0 0 0 0 0 0v99.833c0 99.639-80.773 180.412-180.412 180.412h-356.546c-99.639 0-180.412-80.773-180.412-180.412 0 0 0 0 0 0v-663.175c0-99.639 80.773-180.412 180.412-180.412h356.546c99.639 0 180.412 80.773 180.412 180.412 0 0 0 0 0 0v99.833c0.003 0.102 0.005 0.221 0.005 0.342 0 6.695-5.427 12.123-12.123 12.123-1.014 0-1.999-0.125-2.941-0.359zM1028.279 462.262l-186.117 199.666c-7.131 7.844-13.549 5.705-13.549-4.992v-150.462h-449.248c0 0 0 0 0 0-13.39 0-24.245-10.855-24.245-24.245 0 0 0 0 0 0v-71.309c0-13.39 10.855-24.245 24.245-24.245 0 0 0 0 0 0h449.248v-149.036c0-10.696 6.418-12.836 13.549-4.992l186.117 201.092c3.38 3.767 5.448 8.773 5.448 14.262s-2.067 10.495-5.465 14.282z" />
<glyph unicode="&#xe904;" glyph-name="settings" d="M1024 474.721c-0.334 37.981-30.864 68.728-68.735 69.412l-43.064 0.001c4.27 5.027-16.743 66.082-49.537 119.078l31.108 30.191c12.45 12.634 20.139 29.99 20.139 49.142s-7.688 36.508-20.147 49.151l-38.077 38.077c-12.634 12.45-29.99 20.139-49.142 20.139s-36.508-7.688-49.151-20.147l-30.091-30.091c4.279 2.916-52.312 32.544-114.516 47.939l-2.811 42.36c-0.342 38.195-31.215 69.069-69.38 69.413h-54.089c-38.195-0.342-69.069-31.215-69.413-69.38v-43.032c-4.919 4.298-66.030-16.728-119.082-49.539l-28.344 31.11c-12.634 12.45-29.99 20.139-49.142 20.139s-36.508-7.688-49.151-20.147l-38.077-38.077c-12.45-12.634-20.139-29.99-20.139-49.142s7.688-36.508 20.147-49.151l30.091-30.091c-2.796 4.482-32.484-52.202-47.936-114.506l-43.591-2.821c-38.195-0.342-69.069-31.215-69.413-69.38v-54.089c0.348-38.41 31.566-69.413 70.025-69.413 0.001 0 0.002 0 0.003 0h42.999c-4.215-5.241 16.774-66.184 49.533-119.069l-31.105-28.357c-12.45-12.634-20.139-29.99-20.139-49.142s7.688-36.508 20.147-49.151l38.077-38.077c12.634-12.45 29.99-20.139 49.142-20.139s36.508 7.688 49.151 20.147l30.091 30.091c-3.772-3.218 52.586-32.693 114.54-47.948l2.787-43.58c0.342-38.195 31.215-69.069 69.38-69.413h54.089c38.195 0.342 69.069 31.215 69.413 69.38v41.804c5.241-4.215 66.184 16.774 119.069 49.533l28.357-31.105c12.634-12.45 29.99-20.139 49.142-20.139s36.508 7.688 49.151 20.147l38.077 38.077c12.45 12.634 20.139 29.99 20.139 49.142s-7.688 36.508-20.147 49.151l-30.091 30.091c3.037-4.076 32.604 52.422 47.943 114.525l42.97 2.802c38.195 0.342 69.069 31.215 69.413 69.38v54.703zM586.635 375.208c-18.569-18.596-44.237-30.1-72.591-30.1-56.656 0-102.584 45.929-102.584 102.584s45.929 102.584 102.584 102.584c28.354 0 54.022-11.504 72.59-30.098 18.533-18.56 29.994-44.185 29.994-72.486s-11.461-53.926-29.994-72.486z" />
<glyph unicode="&#xe905;" glyph-name="search" d="M911.034 846.37c-69.373 67.135-164.030 108.51-268.35 108.51-213.224 0-386.077-172.852-386.077-386.077 0-74.279 20.977-143.658 57.329-202.538l-293.337-290.72c-11.119-11.272-17.986-26.763-17.986-43.857s6.867-32.585 17.993-43.864l33.883-33.883c11.272-11.119 26.763-17.986 43.857-17.986s32.585 6.867 43.864 17.993l290.381 294.368c57.218-35.397 126.597-56.374 200.876-56.374 213.224 0 386.077 172.852 386.077 386.077 0 104.321-41.376 198.978-108.611 268.456zM823.32 387.862c-47.405-47.538-112.966-76.949-185.396-76.949-144.596 0-261.814 117.218-261.814 261.814s117.218 261.814 261.814 261.814c144.409 0 261.511-116.916 261.814-261.254 0-0.039 0-0.051 0-0.062 0-72.235-29.478-137.585-77.060-184.677z" />
<glyph unicode="&#xe906;" glyph-name="statistics" horiz-adv-x="1455" d="M875.529 107.139v-17.001c0-23.16-18.775-41.935-41.935-41.935 0 0 0 0 0 0h-213.074c-23.16 0-41.935 18.775-41.935 41.935 0 0 0 0 0 0v17.001h-578.586v-87.836c0.304-45.483 36.776-82.354 82.081-83.301l1289.297-0.001c0 0 0 0 0 0 46.32 0 83.869 37.55 83.869 83.869 0 0 0 0 0 0v87.836h-579.719zM1352.111 838.163c0 67.289-54.548 121.837-121.837 121.837h-1005.299c-67.289 0-121.837-54.548-121.837-121.837v-694.189h1246.707v694.189zM1250.107 194.408h-1044.967v657.355h1044.967v-657.355zM373.445 261.844c0 0 0 0 0 0 35.053 0 63.469 28.416 63.469 63.469 0 0 0 0 0 0-0.14 14.48-5.689 28.395-14.811 39.195l109.447 164.245c2.383-0.323 5.137-0.507 7.934-0.507s5.551 0.184 8.25 0.541c19.844-0.011 37.842 9.459 49.449 24.198l239.244-83.167c-0.028-0.707-0.044-1.537-0.044-2.37 0-35.053 28.416-63.469 63.469-63.469s63.469 28.416 63.469 63.469c0 14.858-5.105 28.523-13.658 39.338l109.472 152.305c5.262-1.574 11.308-2.479 17.566-2.479 35.053 0 63.469 28.416 63.469 63.469s-28.416 63.469-63.469 63.469c-35.053 0-63.469-28.416-63.469-63.469 0-0.124 0-0.249 0.001-0.373 0-0.002 0-0.027 0-0.052 0-13.543 4.242-26.095 11.469-36.4l-109.505-152.235c-5.478 1.763-11.78 2.779-18.319 2.779-19.965 0-37.717-9.472-49.009-24.167l-234.715 81.457c0 35.209-28.543 63.752-63.752 63.752s-63.752-28.543-63.752-63.752c0-0.058 0-0.127 0-0.196 0-14.495 4.903-27.846 13.141-38.483l-109.478-164.195c-2.383 0.323-5.137 0.507-7.934 0.507s-5.551-0.184-8.25-0.541c-32.063-3.126-57.161-30.208-57.161-63.151s25.099-60.025 57.217-63.165z" />
<glyph unicode="&#xe907;" glyph-name="team" horiz-adv-x="906" d="M484.988 955.877c58.469-16.666 92.357-77.576 75.69-136.044s-77.576-92.357-136.044-75.69c-58.469 16.666-92.357 77.576-75.69 136.044s77.576 92.357 136.044 75.69zM153.711 275.326c38.754-11.032 61.227-51.391 50.195-90.145s-51.391-61.227-90.145-50.195c-38.754 11.032-61.227 51.391-50.195 90.145s51.391 61.227 90.145 50.195zM224.054 84.506h-181.747c-21.697 0-39.285-17.588-39.285-39.285 0 0 0 0 0 0v-109.653h259.022v109.653c0 0.006 0 0.014 0 0.021 0 21.241-16.858 38.545-37.924 39.262zM795.159 275.144c38.752-11.039 61.218-51.402 50.179-90.154s-51.402-61.218-90.154-50.179c-38.752 11.039-61.218 51.402-50.179 90.154s51.402 61.218 90.154 50.179zM867.723 84.506h-183.906c-21.51-0.244-38.853-17.738-38.853-39.283 0-0.001 0-0.002 0-0.003v-109.652h259.022v109.653c0 0.035 0 0.075 0 0.116 0 20.633-15.907 37.551-36.126 39.16zM466.911 275.454c38.754-11.032 61.227-51.391 50.195-90.145s-51.391-61.227-90.145-50.195c-38.754 11.032-61.227 51.391-50.195 90.145s51.391 61.227 90.145 50.195zM537.039 84.506h-181.747c-21.697 0-39.285-17.588-39.285-39.285 0 0 0 0 0 0v-109.653h259.022v109.653c0 0.006 0 0.014 0 0.021 0 21.241-16.858 38.545-37.924 39.262zM649.713 471.744v140.304c0.025 0.644 0.040 1.399 0.040 2.159 0 32.426-26.286 58.712-58.712 58.712-0.014 0-0.028 0-0.042 0h-274.129c0 0 0 0 0 0-32.664 0-59.143-26.479-59.143-59.143 0 0 0 0 0 0v-140.304h-259.022v-78.57h906.577v78.57h-255.568z" />
<glyph unicode="&#xe908;" glyph-name="sprints" horiz-adv-x="1001" d="M787.899 511.050l-112.685 448.95-492.772-126.994 65.286-321.956h540.171zM1000.748 256.615l-140.409 359.965h-64.391l114.921-359.965h-819.2l115.815 359.965h-65.733l-141.75-359.965v-320.168h1000.748v320.168zM500.821 33.034c61.708 61.708 61.708 61.708 61.708 61.708-0.751-33.499-28.085-60.367-61.694-60.367-0.005 0-0.010 0-0.015 0zM193.174 469.017h624.238v-52.765h-624.238v52.765zM151.141 375.113h708.751v-52.765h-708.751v52.765z" />
<glyph unicode="&#xe909;" glyph-name="board" horiz-adv-x="1455" d="M876.662 107.139v-17.001c0-23.16-18.775-41.935-41.935-41.935 0 0 0 0 0 0h-214.774c-23.16 0-41.935 18.775-41.935 41.935 0 0 0 0 0 0v17.001h-578.019v-87.836c0-46.32 37.55-83.869 83.869-83.869h1289.209c0 0 0 0 0 0 46.32 0 83.869 37.55 83.869 83.869v87.836h-580.286zM1351.544 838.163c0 67.289-54.548 121.837-121.837 121.837 0 0 0 0 0 0h-1005.299c0 0 0 0 0 0-67.289 0-121.837-54.548-121.837-121.837 0 0 0 0 0 0v-694.189h1246.707v694.189zM1249.541 194.975h-1044.967v656.788h1044.967v-656.788z" />
<glyph unicode="&#xe90a;" glyph-name="plus" d="M810.667 405.333h-256v-256h-85.333v256h-256v85.333h256v256h85.333v-256h256v-85.333z" />
<glyph unicode="&#xe90b;" glyph-name="brainstorm" horiz-adv-x="731" d="M365.714 960c-197.486 0-365.714-160.914-365.714-365.714 0-270.629 190.171-307.2 204.8-446.171l14.629-80.457c7.314-80.457 73.143-131.657 146.286-131.657s131.657 43.886 146.286 124.343l7.314 80.457c14.629 146.286 204.8 175.543 204.8 446.171 7.314 204.8-153.6 373.029-358.4 373.029v0zM490.057 192c-7.314-21.943-14.629-117.029-14.629-117.029-14.629-65.829-58.514-95.086-109.714-95.086-95.086 0-102.4 87.771-102.4 87.771s-14.629 102.4-14.629 117.029c-14.629 51.2-51.2 95.086-87.771 138.971-51.2 65.829-109.714 131.657-109.714 270.629 0 175.543 138.971 314.514 314.514 314.514s321.829-146.286 321.829-321.829c0-146.286-58.514-212.114-109.714-277.943-36.571-29.257-80.457-87.771-87.771-117.029v0zM526.629 601.6c0 7.314 0 14.629 0 21.943l58.514 58.514-36.571 58.514-73.143-29.257c-7.314 7.314-14.629 7.314-21.943 14.629l7.314 73.143-65.829 21.943-29.257-73.143c-7.314 0-14.629 0-21.943 0l-58.514 58.514-58.514-36.571 29.257-73.143c-7.314-7.314-14.629-14.629-14.629-14.629l-73.143 7.314-21.943-65.829 73.143-36.571c0-7.314 0-14.629 0-21.943l-58.514-58.514 36.571-58.514 73.143 29.257c7.314-7.314 14.629-7.314 14.629-14.629l-7.314-73.143 65.829-14.629 36.571 73.143c7.314 0 14.629 0 21.943 0l51.2-58.514 58.514 29.257-29.257 73.143c7.314 7.314 14.629 14.629 14.629 14.629l73.143-7.314 14.629 65.829-58.514 36.571zM409.6 528.457c-36.571-21.943-87.771-7.314-109.714 29.257s-7.314 80.457 29.257 109.714c36.571 21.943 87.771 7.314 109.714-29.257 21.943-43.886 7.314-87.771-29.257-109.714v0z" />
<glyph unicode="&#xe90c;" glyph-name="paint" d="M864.626 486.838c-65.754 183.44-205.11 348.15-352.626 473.162-147.516-125.012-286.87-289.722-352.626-473.162-40.664-113.436-44.682-236.562 12.584-345.4 65.846-125.14 198.632-205.438 340.042-205.438s274.196 80.298 340.040 205.44c57.27 108.838 53.25 231.962 12.586 345.398zM738.764 201.044c-43.802-83.252-132.812-137.044-226.764-137.044-55.12 0-108.524 18.536-152.112 50.652 13.242-1.724 26.632-2.652 40.112-2.652 117.426 0 228.668 67.214 283.402 171.242 44.878 85.292 40.978 173.848 23.882 244.338 14.558-28.15 26.906-56.198 36.848-83.932 22.606-63.062 40.024-156.34-5.368-242.604z" />
<glyph unicode="&#xe90d;" glyph-name="trash" d="M128 640v-640c0-35.2 28.8-64 64-64h576c35.2 0 64 28.8 64 64v640h-704zM320 64h-64v448h64v-448zM448 64h-64v448h64v-448zM576 64h-64v448h64v-448zM704 64h-64v448h64v-448zM848 832h-208v80c0 26.4-21.6 48-48 48h-224c-26.4 0-48-21.6-48-48v-80h-208c-26.4 0-48-21.6-48-48v-80h832v80c0 26.4-21.6 48-48 48zM576 832h-192v63.198h192v-63.198z" />
<glyph unicode="&#xe90e;" glyph-name="circle-arrow-down" d="M1024 448c0 282.77-229.23 512-512 512s-512-229.23-512-512 229.23-512 512-512 512 229.23 512 512zM96 448c0 229.75 186.25 416 416 416s416-186.25 416-416-186.25-416-416-416-416 186.25-416 416zM317.256 605.256l-90.512-90.512 285.256-285.254 285.254 285.256-90.508 90.508-194.746-194.744z" />
<glyph unicode="&#xe90f;" glyph-name="tag" d="M976 960h-384c-26.4 0-63.274-15.274-81.942-33.942l-476.116-476.116c-18.668-18.668-18.668-49.214 0-67.882l412.118-412.118c18.668-18.668 49.214-18.668 67.882 0l476.118 476.118c18.666 18.666 33.94 55.54 33.94 81.94v384c0 26.4-21.6 48-48 48zM736 576c-53.020 0-96 42.98-96 96s42.98 96 96 96 96-42.98 96-96-42.98-96-96-96z" />
<glyph unicode="&#xe910;" glyph-name="calendar" d="M320 576h128v-128h-128zM512 576h128v-128h-128zM704 576h128v-128h-128zM128 192h128v-128h-128zM320 192h128v-128h-128zM512 192h128v-128h-128zM320 384h128v-128h-128zM512 384h128v-128h-128zM704 384h128v-128h-128zM128 384h128v-128h-128zM832 960v-64h-128v64h-448v-64h-128v64h-128v-1024h960v1024h-128zM896 0h-832v704h832v-704z" />
<glyph unicode="&#xe911;" glyph-name="cog" d="M933.79 349.75c-53.726 93.054-21.416 212.304 72.152 266.488l-100.626 174.292c-28.75-16.854-62.176-26.518-97.846-26.518-107.536 0-194.708 87.746-194.708 195.99h-201.258c0.266-33.41-8.074-67.282-25.958-98.252-53.724-93.056-173.156-124.702-266.862-70.758l-100.624-174.292c28.97-16.472 54.050-40.588 71.886-71.478 53.638-92.908 21.512-211.92-71.708-266.224l100.626-174.292c28.65 16.696 61.916 26.254 97.4 26.254 107.196 0 194.144-87.192 194.7-194.958h201.254c-0.086 33.074 8.272 66.57 25.966 97.218 53.636 92.906 172.776 124.594 266.414 71.012l100.626 174.29c-28.78 16.466-53.692 40.498-71.434 71.228zM512 240.668c-114.508 0-207.336 92.824-207.336 207.334 0 114.508 92.826 207.334 207.336 207.334 114.508 0 207.332-92.826 207.332-207.334-0.002-114.51-92.824-207.334-207.332-207.334z" />
<glyph unicode="&#xe912;" glyph-name="paper-clip" d="M665.832 632.952l-64.952 64.922-324.81-324.742c-53.814-53.792-53.814-141.048 0-194.844 53.804-53.792 141.060-53.792 194.874 0l389.772 389.708c89.714 89.662 89.714 235.062 0 324.726-89.666 89.704-235.112 89.704-324.782 0l-409.23-409.178c-0.29-0.304-0.612-0.576-0.876-0.846-125.102-125.096-125.102-327.856 0-452.906 125.054-125.056 327.868-125.056 452.988 0 0.274 0.274 0.516 0.568 0.82 0.876l0.032-0.034 279.332 279.292-64.986 64.92-279.33-279.262c-0.296-0.268-0.564-0.57-0.846-0.844-89.074-89.058-233.98-89.058-323.076 0-89.062 89.042-89.062 233.922 0 322.978 0.304 0.304 0.604 0.582 0.888 0.846l-0.046 0.060 409.28 409.166c53.712 53.738 141.144 53.738 194.886 0 53.712-53.734 53.712-141.148 0-194.84l-389.772-389.7c-17.936-17.922-47.054-17.922-64.972 0-17.894 17.886-17.894 47.032 0 64.92l324.806 324.782z" />
<glyph unicode="&#xe913;" glyph-name="plus-sign" d="M992 576h-352v352c0 17.672-14.328 32-32 32h-192c-17.672 0-32-14.328-32-32v-352h-352c-17.672 0-32-14.328-32-32v-192c0-17.672 14.328-32 32-32h352v-352c0-17.672 14.328-32 32-32h192c17.672 0 32 14.328 32 32v352h352c17.672 0 32 14.328 32 32v192c0 17.672-14.328 32-32 32z" />
<glyph unicode="&#xe914;" glyph-name="remove" d="M1014.662 137.34c-0.004 0.004-0.008 0.008-0.012 0.010l-310.644 310.65 310.644 310.65c0.004 0.004 0.008 0.006 0.012 0.010 3.344 3.346 5.762 7.254 7.312 11.416 4.246 11.376 1.824 24.682-7.324 33.83l-146.746 146.746c-9.148 9.146-22.45 11.566-33.828 7.32-4.16-1.55-8.070-3.968-11.418-7.31 0-0.004-0.004-0.006-0.008-0.010l-310.648-310.652-310.648 310.65c-0.004 0.004-0.006 0.006-0.010 0.010-3.346 3.342-7.254 5.76-11.414 7.31-11.38 4.248-24.682 1.826-33.83-7.32l-146.748-146.748c-9.148-9.148-11.568-22.452-7.322-33.828 1.552-4.16 3.97-8.072 7.312-11.416 0.004-0.002 0.006-0.006 0.010-0.010l310.65-310.648-310.65-310.652c-0.002-0.004-0.006-0.006-0.008-0.010-3.342-3.346-5.76-7.254-7.314-11.414-4.248-11.376-1.826-24.682 7.322-33.83l146.748-146.746c9.15-9.148 22.452-11.568 33.83-7.322 4.16 1.552 8.070 3.97 11.416 7.312 0.002 0.004 0.006 0.006 0.010 0.010l310.648 310.65 310.648-310.65c0.004-0.002 0.008-0.006 0.012-0.008 3.348-3.344 7.254-5.762 11.414-7.314 11.378-4.246 24.684-1.826 33.828 7.322l146.746 146.748c9.148 9.148 11.57 22.454 7.324 33.83-1.552 4.16-3.97 8.068-7.314 11.414z" />
<glyph unicode="&#xe915;" glyph-name="return-key" d="M448 184.372v-248.372l-384 384 384 384v-253.824c446.75-10.48 427.588 303.792 313.862 509.824 280.71-303.414 221.1-789.57-313.862-775.628z" />
<glyph unicode="&#xe916;" glyph-name="ok" d="M864 832l-480-480-224 224-160-160 384-384 640 640z" />
</font>
</defs>
</svg>
